<svg id="Layer_1" data-name="Layer 1" xmlns="http://www.w3.org/2000/svg" viewBox="0 0 292.69 81.47"><defs><style>.cls-1{fill:#231f20;}.cls-2{fill:#fff;}.cls-3{fill:#ee3124;}</style></defs><title>adobe_logo</title><rect class="cls-1" width="292.69" height="81.47"/><path class="cls-2" d="M175.6,122l-2.74,13.81H162.73l12.63-57.44h12.4l11.47,57.44H189.05L186.37,122Zm9.8-8.09-2.11-12.45c-.6-3.59-1.37-9.18-2-13.06h-.22c-.63,3.91-1.48,9.67-2.12,13.09L176.73,114Z" transform="translate(-69.81 -66.53)"/><path class="cls-2" d="M232.65,76.89v47.06c0,3.73.19,8.33.34,11.91h-9l-.59-4.79h-.22a10,10,0,0,1-8.7,5.47c-8.6,0-12.85-9.46-12.85-21.39,0-14.54,6.35-21.61,13.28-21.61a7.36,7.36,0,0,1,7.14,4.32h.17v-21ZM222.26,110.2a14,14,0,0,0-.15-2.48c-.4-2.84-1.92-5.39-4.35-5.39-4.18,0-5.71,6-5.71,13,0,8.06,2.19,12.66,5.56,12.66,1.55,0,3.32-.8,4.3-4.18a8.49,8.49,0,0,0,.35-2.63Z" transform="translate(-69.81 -66.53)"/><path class="cls-2" d="M254.09,136.54c-9.57,0-15.58-7.68-15.58-21.38,0-15,7.71-21.61,15.82-21.61,9.44,0,15.37,8,15.37,21.38,0,17.13-9.27,21.62-15.52,21.62Zm.19-7.95c4,0,4.95-7.45,4.95-13.61,0-5.86-1-13.5-5.12-13.5-4.39,0-5.31,7.63-5.31,13.5,0,7.07,1.17,13.61,5.39,13.61Z" transform="translate(-69.81 -66.53)"/><path class="cls-2" d="M275.5,76.89h10.39v21.7h.17c2-3.21,4.77-5,8.73-5,7.83,0,11.76,8.88,11.76,20.47,0,14.66-5.87,22.52-13.46,22.52-3.63,0-6-1.61-8.21-5.67h-.22l-.59,5h-8.91c.15-3.46.34-8.17.34-11.91ZM285.89,121a8.47,8.47,0,0,0,.41,2.66c1,3.49,2.82,4.35,4.22,4.35,4,0,5.64-5.08,5.64-13.2,0-7.38-1.71-12.47-5.69-12.47-2,0-3.62,2.14-4.19,4.42a10.93,10.93,0,0,0-.39,2.62Z" transform="translate(-69.81 -66.53)"/><path class="cls-2" d="M321,118.39c.13,7.52,4.1,10,9,10a21.88,21.88,0,0,0,7.79-1.44l1.4,7.45a30.43,30.43,0,0,1-11.08,1.93c-11.15,0-17.24-7.59-17.24-20.55,0-13.92,7.07-22.27,16.29-22.27,8.91,0,13.85,7.38,13.85,19.45a37.64,37.64,0,0,1-.3,5.51Zm10.47-7.32c.05-5.84-1.66-9.95-5-9.95-3.76,0-5.36,5.49-5.49,9.95Z" transform="translate(-69.81 -66.53)"/><polygon class="cls-3" points="54.65 7.85 81.72 7.85 81.72 72.42 54.65 7.85"/><polygon class="cls-3" points="35.58 7.85 8.49 7.85 8.49 72.42 35.58 7.85"/><polygon class="cls-3" points="45.12 31.65 62.37 72.42 51.06 72.42 45.91 59.44 33.28 59.44 45.12 31.65"/><path class="cls-2" d="M352.18,76.23a3.43,3.43,0,0,1,0,6.86,3.43,3.43,0,1,1,0-6.86Zm0,.58a2.85,2.85,0,1,0,2.74,2.85,2.79,2.79,0,0,0-2.74-2.85Zm-.63,4.84h-.69V77.83a7,7,0,0,1,1.15-.11,2,2,0,0,1,1.24.31,1,1,0,0,1,.34.79.92.92,0,0,1-.73.91v0c.34.06.55.37.63.93a3.49,3.49,0,0,0,.23.95H353a3,3,0,0,1-.24-1,.7.7,0,0,0-.81-.64h-.4Zm0-2.15H352c.51,0,.92-.17.92-.61s-.24-.64-.89-.64a3.47,3.47,0,0,0-.44,0Z" transform="translate(-69.81 -66.53)"/></svg>