<svg id="Layer_1" data-name="Layer 1" xmlns="http://www.w3.org/2000/svg" viewBox="0 0 387.46 491.21"><defs><style>.cls-1{fill:#fff;}</style></defs><title>if</title><path class="cls-1" d="M833.52,377.13c7.53-2.74,12.32-21.89,4.79-28.73h-78c-11.63,0-11.63-.68-11.63-19.16V309.4c0-34.21,2.74-84.15,15.05-115.62,10.26-24.63,27.37-37.63,48.57-37.63,22.58,0,41.73,15.05,54.73,30.1,4.79,5.47,8.89,8.21,16.42,8.21,13,0,26-10.95,26-24.63,0-24.63-30.79-41-67-41-67.73,0-106,47.89-123.14,86.89C702.85,254,698.06,296.4,698.06,336.08c0,6.84-4.79,10.95-10.26,13.68l-29.42,14.37c-2.74,4.1-2.05,10.26,2.05,13h23.94c13.68,0,13.68,1.37,13.68,19.84V541.32c0,49.26-.68,56.1-26,59.52l-15.74,2.05c-4.79,3.42-3.42,15.05,1.37,17.1,20.52-1.37,41-2.05,65.68-2.05,23.95,0,43.79.68,74.57,2.05,4.79-2.05,6.16-13.68,1.37-17.1l-24.63-2.05c-24.63-2.05-26-10.26-26-59.52V397c0-18.47,0-19.84,11.63-19.84ZM587.92,191C567.4,191,551,205.41,551,228c0,18.47,13.68,34.21,34.89,34.21,19.16,0,36.26-10.95,36.26-35.58,0-19.16-13.68-35.58-34.21-35.58M565.34,541.32c0,49.26-.68,56.1-26,59.52L525,602.9c-4.79,3.42-3.42,15.05,1.37,17.1,19.16-1.37,39.68-2.05,64.31-2.05,23.94,0,43.79.68,64.31,2.05,4.79-2.05,6.16-13.68,1.37-17.1L642,600.84c-24.63-3.42-26-10.26-26-59.52V418.18c0-28,1.37-60.89,2.74-84.83-.68-2.74-3.42-4.11-6.84-4.11-15.74,10.26-54.73,28-70.47,33.52-3.42,2.05-3.42,9.58-.68,12.31l6.16,4.1c18.47,12.32,18.47,15.74,18.47,42.42Z" transform="translate(-522 -128.79)"/></svg>